<svg xmlns="http://www.w3.org/2000/svg">
  <symbol viewBox="0 0 25 24" id='insta'>
  <path d="M17.6794 5.67238C17.6794 4.98051 18.2682 4.41964 18.9947 4.41964C19.7211 4.41964 20.31 4.98051 20.31 5.67238C20.31 6.36424 19.7211 6.92512 18.9947 6.92512C18.2682 6.92512 17.6794 6.36424 17.6794 5.67238Z" fill="black"/>
  <path fill-rule="evenodd" clip-rule="evenodd" d="M12.4182 5.98556C8.96774 5.98556 6.17057 8.64971 6.17057 11.9361C6.17057 15.2225 8.96774 17.8866 12.4182 17.8866C15.8688 17.8866 18.6659 15.2225 18.6659 11.9361C18.6659 8.64971 15.8688 5.98556 12.4182 5.98556ZM8.14351 11.9361C8.14351 9.68754 10.0574 7.86468 12.4182 7.86468C14.779 7.86468 16.6929 9.68754 16.6929 11.9361C16.6929 14.1846 14.779 16.0075 12.4182 16.0075C10.0574 16.0075 8.14351 14.1846 8.14351 11.9361Z" fill="black"/>
  <path fill-rule="evenodd" clip-rule="evenodd" d="M19.3353 0.451678C14.7757 -0.0336972 10.0625 -0.0336972 5.50298 0.451678C2.85653 0.733382 0.720064 2.71899 0.408931 5.2527C-0.13631 9.69275 -0.13631 14.1783 0.408931 18.6184C0.720064 21.1521 2.85653 23.1377 5.50298 23.4194C10.0625 23.9047 14.7757 23.9047 19.3353 23.4194C21.9817 23.1377 24.1181 21.1521 24.4293 18.6184C24.9745 14.1783 24.9745 9.69275 24.4293 5.2527C24.1181 2.71899 21.9817 0.733382 19.3353 0.451678ZM5.72212 2.31915C10.136 1.8493 14.7022 1.8493 19.116 2.31915C20.8656 2.50538 22.267 3.82029 22.4698 5.47099C22.9972 9.76604 22.9972 14.105 22.4698 18.4001C22.267 20.0508 20.8656 21.3657 19.116 21.552C14.7022 22.0217 10.136 22.0217 5.72212 21.552C3.97264 21.3657 2.57121 20.0508 2.36851 18.4001C1.84107 14.105 1.84107 9.76604 2.36851 5.47099C2.57121 3.82029 3.97264 2.50538 5.72212 2.31915Z" fill="black"/>
  </symbol>

  <symbol  viewBox="0 0 29 24" fill="none" id="telega">
  <path fill-rule="evenodd" clip-rule="evenodd" d="M6.6562 14.4405C6.71734 14.4602 6.77906 14.4741 6.84072 14.4826C6.90797 14.6335 6.99485 14.8284 7.09622 15.0565C7.34359 15.613 7.67689 16.3659 8.02093 17.1511C8.72256 18.7526 9.43027 20.4035 9.58658 20.876C9.78008 21.4602 9.98461 21.8573 10.2079 22.1285C10.3233 22.2687 10.4569 22.3911 10.6131 22.4838C10.6918 22.5305 10.7748 22.5687 10.8616 22.5972C10.8654 22.5986 10.8692 22.5998 10.873 22.601C11.3201 22.762 11.7277 22.6949 11.9828 22.613C12.1194 22.569 12.2298 22.5161 12.3081 22.4732C12.3481 22.4512 12.3818 22.4308 12.4087 22.4135L12.415 22.4095L16.3632 20.0606L20.9236 23.3961C20.9909 23.4453 21.0643 23.4866 21.1421 23.519C21.69 23.747 22.2204 23.8265 22.7196 23.7615C23.2177 23.6966 23.6133 23.497 23.9078 23.2721C24.1961 23.0521 24.3916 22.8055 24.5134 22.6224C24.5756 22.5289 24.6222 22.4461 24.6551 22.3828C24.6717 22.351 24.685 22.3235 24.6951 22.3015L24.7084 22.2725L24.7133 22.261L24.7154 22.2562L24.7164 22.2539L24.7172 22.2518C24.7412 22.1946 24.7595 22.1355 24.7721 22.0751L28.9355 2.05039C28.9488 1.98636 28.9555 1.92121 28.9555 1.85592C28.9555 1.26951 28.7239 0.711905 28.1793 0.373541C27.7139 0.0843412 27.1953 0.0718937 26.8676 0.0956161C26.5141 0.121218 26.1877 0.204472 25.9685 0.270988C25.8545 0.305612 25.7589 0.33901 25.6901 0.364492C25.6554 0.377299 25.6269 0.388294 25.6058 0.396677L25.5899 0.403047L2.24136 9.14106L2.23835 9.14213C2.22347 9.14733 2.20436 9.15412 2.18166 9.16252C2.13645 9.17931 2.07586 9.2029 2.00511 9.23355C1.86711 9.29326 1.67352 9.38642 1.47486 9.51622C1.15748 9.72359 0.427577 10.2915 0.550483 11.2288C0.648536 11.9766 1.1855 12.4358 1.51266 12.6566C1.6923 12.7779 1.86297 12.8645 1.98725 12.9211C2.04491 12.9472 2.16463 12.9935 2.21657 13.0138L2.22968 13.0189L6.6562 14.4405ZM26.4071 2.2438L26.4038 2.24516C26.3922 2.24998 26.3805 2.25459 26.3687 2.25902L2.99175 11.0077C2.97954 11.0122 2.96724 11.0166 2.95487 11.0207L2.94186 11.0254C2.9269 11.031 2.90173 11.0407 2.87013 11.0543C2.8522 11.062 2.8335 11.0706 2.81443 11.0796C2.84064 11.0938 2.8657 11.1059 2.88798 11.116C2.90937 11.1257 2.92568 11.1324 2.93461 11.1359L7.32477 12.5459C7.40513 12.5717 7.48003 12.6059 7.54879 12.6472L22.0448 4.55156L22.0584 4.54391C22.069 4.53795 22.0828 4.5303 22.0994 4.52133C22.1324 4.50354 22.1778 4.47986 22.2317 4.45367C22.3323 4.40483 22.4932 4.33231 22.6746 4.27884C22.8009 4.24162 23.1731 4.13675 23.5756 4.25991C23.824 4.33591 24.0812 4.49931 24.2484 4.77612C24.3315 4.91364 24.3758 5.05179 24.3972 5.17825C24.4542 5.37747 24.4452 5.57419 24.4007 5.74402C24.3046 6.10986 24.0351 6.39523 23.7899 6.6135C23.5799 6.80063 20.8623 9.30059 18.1814 11.7685C16.8443 12.9991 15.521 14.2178 14.5319 15.1286L13.8822 15.727L22.0852 21.7266C22.2732 21.7908 22.3844 21.7876 22.436 21.7808C22.4973 21.7728 22.5474 21.7503 22.5987 21.7113C22.656 21.6675 22.7061 21.6084 22.7436 21.552L22.7451 21.5497L26.7831 2.12806C26.7231 2.1418 26.6625 2.15817 26.6041 2.17589C26.5379 2.19598 26.4834 2.21512 26.4472 2.22848C26.4293 2.23511 26.4165 2.24013 26.4095 2.2429L26.4071 2.2438ZM14.5869 18.7614L12.9504 17.5644L12.5538 19.9709L14.5869 18.7614ZM11.4491 15.1892L13.0765 13.6903C14.0657 12.7794 15.3892 11.5607 16.7263 10.3298L18.0848 9.07949L8.97655 14.1662L9.02542 14.2762C9.27366 14.8347 9.60846 15.5907 9.95432 16.3803C10.2129 16.9705 10.4834 17.5921 10.7297 18.1676L11.1251 15.7681C11.1632 15.5368 11.2817 15.3366 11.4491 15.1892Z" fill="black"/>
  </symbol>

  <symbol viewBox="0 0 24 24" fill="none" id="viber">
  <path d="M7.42185 5.0049C7.20188 4.97424 6.97752 5.01637 6.78613 5.12427H6.76982C6.32547 5.37275 5.92519 5.6868 5.58386 6.05475C5.30019 6.36763 5.14631 6.68422 5.1059 6.98895C5.0818 7.17059 5.09812 7.35224 5.15486 7.52573L5.17506 7.53759C5.49448 8.43323 5.91182 9.29475 6.42165 10.1059C7.07836 11.2454 7.88657 12.2992 8.8262 13.2414L8.85417 13.2799L8.89848 13.3111L8.92645 13.3421L8.95909 13.3689C9.95021 14.2679 11.0575 15.0426 12.2543 15.6739C13.6221 16.3842 14.4522 16.7201 14.9503 16.8595V16.8669C15.0964 16.9092 15.2293 16.9284 15.363 16.9284C15.7875 16.8988 16.1895 16.7343 16.5046 16.4613C16.8885 16.1356 17.2141 15.7522 17.4683 15.3263V15.3188C17.7068 14.8903 17.6261 14.4847 17.2818 14.2104C16.5922 13.6354 15.8467 13.1248 15.0552 12.6853C14.5251 12.411 13.9866 12.577 13.7682 12.8551L13.3027 13.4149C13.0641 13.6928 12.6304 13.6543 12.6304 13.6543L12.618 13.6617C9.3842 12.8736 8.52155 9.74998 8.52155 9.74998C8.52155 9.74998 8.48113 9.32518 8.78035 9.10866L9.36321 8.66085C9.64222 8.44435 9.83652 7.93129 9.5373 7.4249C9.07987 6.66877 8.54572 5.9573 7.94256 5.30072C7.81069 5.14594 7.6257 5.04062 7.4203 5.00342L7.42185 5.0049Z" fill="black"/>
<path d="M12.8876 3.64691C12.5606 3.64691 12.2955 3.89982 12.2955 4.2118C12.2955 4.52378 12.5606 4.77669 12.8876 4.77669C14.3851 4.77669 15.6294 5.24365 16.6124 6.1378C17.1185 6.62744 17.5124 7.20703 17.771 7.84127C18.0306 8.47791 18.1487 9.15676 18.1183 9.83677C18.1045 10.1485 18.358 10.4118 18.6848 10.425C19.0115 10.4384 19.2877 10.1964 19.3015 9.88467C19.3388 9.04818 19.1934 8.21355 18.8746 7.43168C18.5558 6.64985 18.0706 5.9374 17.4488 5.33761L17.4369 5.32674C16.2171 4.21388 14.671 3.64691 12.8876 3.64691Z" fill="black"/>
<path d="M12.846 5.50487C12.519 5.50487 12.2538 5.75779 12.2538 6.06976C12.2538 6.38174 12.519 6.63466 12.846 6.63466H12.8653C13.9459 6.7073 14.7321 7.05091 15.2834 7.61495C15.8477 8.19584 16.14 8.91735 16.1183 9.81011C16.1107 10.1219 16.3697 10.3806 16.6966 10.3879C17.0235 10.3951 17.2947 10.1481 17.3023 9.8362C17.3307 8.66407 16.9356 7.65333 16.1513 6.84629L16.1503 6.84522C15.349 6.0249 14.2497 5.59094 12.9253 5.50614L12.9055 5.50487H12.846Z" fill="black"/>
<path d="M12.8239 7.39673C12.4973 7.38033 12.2187 7.61959 12.2015 7.93114C12.1843 8.2427 12.4351 8.50855 12.7616 8.52496C13.2575 8.54985 13.5734 8.69171 13.7722 8.88314C13.9718 9.0754 14.121 9.38325 14.1483 9.8659C14.1659 10.1775 14.4448 10.4164 14.7714 10.3996C15.0979 10.3829 15.3484 10.1168 15.3309 9.80523C15.2926 9.12735 15.0702 8.52803 14.6137 8.08816C14.1562 7.64748 13.5315 7.43226 12.8239 7.39673Z" fill="black"/>
<path fill-rule="evenodd" clip-rule="evenodd" d="M6.35841 0.690358C10.1268 -0.113257 14.0347 -0.113257 17.8031 0.690358L18.2047 0.775973C20.451 1.25499 22.2238 2.89862 22.79 5.02699C23.7465 8.62292 23.7465 12.3899 22.79 15.9857C22.2238 18.1141 20.4509 19.7577 18.2047 20.2368L17.8031 20.3224C15.436 20.8272 13.0139 21.0149 10.6058 20.8855L7.46375 23.5675C7.22248 23.7734 6.88286 23.8378 6.57739 23.7356C6.27191 23.6334 6.04896 23.3806 5.9955 23.0759L5.47584 20.1144C3.45978 19.5168 1.89668 17.9597 1.37158 15.9857C0.415038 12.3899 0.415038 8.62292 1.37158 5.027C1.93774 2.89862 3.71064 1.25499 5.95691 0.775973L6.35841 0.690358ZM17.4156 2.34421C13.9024 1.59502 10.2592 1.59502 6.74592 2.34421L6.34442 2.42983C4.7518 2.76945 3.4948 3.9348 3.09338 5.44384C2.20961 8.7662 2.20961 12.2465 3.09338 15.5688C3.4948 17.0779 4.75179 18.2433 6.34442 18.5829L6.45048 18.6055C6.80326 18.6807 7.07304 18.9524 7.13273 19.2926L7.48122 21.2787L9.69858 19.3859C9.87762 19.2331 10.1139 19.156 10.3536 19.1722C12.7144 19.3316 15.0934 19.1637 17.4156 18.6685L17.8171 18.5829C19.4098 18.2433 20.6668 17.0779 21.0682 15.569C21.9519 12.2465 21.9519 8.7662 21.0682 5.44384C20.6668 3.9348 19.4098 2.76945 17.8171 2.42983L17.4156 2.34421Z" fill="black"/>
</symbol>


</svg>